<mxfile host="65bd71144e">
    <diagram id="vjCCG2XZ-miGtVna6bj2" name="UseCase">
        <mxGraphModel dx="1024" dy="804" grid="1" gridSize="10" guides="1" tooltips="1" connect="1" arrows="1" fold="1" page="1" pageScale="1" pageWidth="850" pageHeight="1100" math="0" shadow="0">
            <root>
                <mxCell id="0"/>
                <mxCell id="1" parent="0"/>
                <mxCell id="6" value="" style="shape=ext;double=1;rounded=1;whiteSpace=wrap;html=1;" vertex="1" parent="1">
                    <mxGeometry x="190" y="90" width="120" height="640" as="geometry"/>
                </mxCell>
                <mxCell id="18" style="edgeStyle=none;html=1;entryX=0;entryY=0.5;entryDx=0;entryDy=0;" edge="1" parent="1" source="2" target="8">
                    <mxGeometry relative="1" as="geometry"/>
                </mxCell>
                <mxCell id="19" style="edgeStyle=none;html=1;entryX=0;entryY=0.5;entryDx=0;entryDy=0;" edge="1" parent="1" source="2" target="9">
                    <mxGeometry relative="1" as="geometry"/>
                </mxCell>
                <mxCell id="20" style="edgeStyle=none;html=1;entryX=0;entryY=0.5;entryDx=0;entryDy=0;" edge="1" parent="1" target="10">
                    <mxGeometry relative="1" as="geometry">
                        <mxPoint x="70" y="240" as="sourcePoint"/>
                    </mxGeometry>
                </mxCell>
                <mxCell id="21" style="edgeStyle=none;html=1;entryX=0;entryY=0.5;entryDx=0;entryDy=0;" edge="1" parent="1" source="2" target="11">
                    <mxGeometry relative="1" as="geometry"/>
                </mxCell>
                <mxCell id="22" style="edgeStyle=none;html=1;entryX=0;entryY=0.5;entryDx=0;entryDy=0;" edge="1" parent="1" source="2" target="15">
                    <mxGeometry relative="1" as="geometry"/>
                </mxCell>
                <mxCell id="23" style="edgeStyle=none;html=1;entryX=0;entryY=0.5;entryDx=0;entryDy=0;" edge="1" parent="1" source="2" target="16">
                    <mxGeometry relative="1" as="geometry"/>
                </mxCell>
                <mxCell id="24" style="edgeStyle=none;html=1;entryX=0;entryY=0.5;entryDx=0;entryDy=0;" edge="1" parent="1" source="2" target="17">
                    <mxGeometry relative="1" as="geometry"/>
                </mxCell>
                <mxCell id="2" value="User" style="shape=umlActor;verticalLabelPosition=bottom;verticalAlign=top;html=1;outlineConnect=0;" vertex="1" parent="1">
                    <mxGeometry x="40" y="200" width="30" height="60" as="geometry"/>
                </mxCell>
                <mxCell id="25" style="edgeStyle=none;html=1;entryX=1;entryY=0.5;entryDx=0;entryDy=0;" edge="1" parent="1" source="3" target="8">
                    <mxGeometry relative="1" as="geometry"/>
                </mxCell>
                <mxCell id="26" style="edgeStyle=none;html=1;entryX=1;entryY=0.5;entryDx=0;entryDy=0;" edge="1" parent="1" source="3" target="9">
                    <mxGeometry relative="1" as="geometry"/>
                </mxCell>
                <mxCell id="27" style="edgeStyle=none;html=1;entryX=1;entryY=0.5;entryDx=0;entryDy=0;" edge="1" parent="1" source="3" target="10">
                    <mxGeometry relative="1" as="geometry"/>
                </mxCell>
                <mxCell id="28" style="edgeStyle=none;html=1;entryX=1;entryY=0.5;entryDx=0;entryDy=0;" edge="1" parent="1" target="11">
                    <mxGeometry relative="1" as="geometry">
                        <mxPoint x="430" y="240" as="sourcePoint"/>
                    </mxGeometry>
                </mxCell>
                <mxCell id="29" style="edgeStyle=none;html=1;entryX=1;entryY=0.5;entryDx=0;entryDy=0;" edge="1" parent="1" source="3" target="12">
                    <mxGeometry relative="1" as="geometry"/>
                </mxCell>
                <mxCell id="30" style="edgeStyle=none;html=1;entryX=1;entryY=0.5;entryDx=0;entryDy=0;" edge="1" parent="1" source="3" target="14">
                    <mxGeometry relative="1" as="geometry"/>
                </mxCell>
                <mxCell id="31" style="edgeStyle=none;html=1;entryX=1;entryY=0.5;entryDx=0;entryDy=0;" edge="1" parent="1" source="3" target="15">
                    <mxGeometry relative="1" as="geometry"/>
                </mxCell>
                <mxCell id="33" style="edgeStyle=none;html=1;entryX=1;entryY=0.5;entryDx=0;entryDy=0;" edge="1" parent="1" source="3" target="16">
                    <mxGeometry relative="1" as="geometry"/>
                </mxCell>
                <mxCell id="34" style="edgeStyle=none;html=1;entryX=1;entryY=0.5;entryDx=0;entryDy=0;" edge="1" parent="1" source="3" target="17">
                    <mxGeometry relative="1" as="geometry"/>
                </mxCell>
                <mxCell id="3" value="Admin" style="shape=umlActor;verticalLabelPosition=bottom;verticalAlign=top;html=1;outlineConnect=0;" vertex="1" parent="1">
                    <mxGeometry x="425" y="200" width="30" height="60" as="geometry"/>
                </mxCell>
                <mxCell id="35" style="edgeStyle=none;html=1;entryX=0;entryY=1;entryDx=0;entryDy=0;" edge="1" parent="1" source="4" target="8">
                    <mxGeometry relative="1" as="geometry"/>
                </mxCell>
                <mxCell id="36" style="edgeStyle=none;html=1;entryX=0;entryY=1;entryDx=0;entryDy=0;" edge="1" parent="1" source="4" target="9">
                    <mxGeometry relative="1" as="geometry"/>
                </mxCell>
                <mxCell id="37" style="edgeStyle=none;html=1;entryX=0;entryY=1;entryDx=0;entryDy=0;" edge="1" parent="1" source="4" target="10">
                    <mxGeometry relative="1" as="geometry"/>
                </mxCell>
                <mxCell id="38" style="edgeStyle=none;html=1;entryX=0;entryY=1;entryDx=0;entryDy=0;" edge="1" parent="1" source="4" target="11">
                    <mxGeometry relative="1" as="geometry"/>
                </mxCell>
                <mxCell id="39" style="edgeStyle=none;html=1;entryX=0;entryY=1;entryDx=0;entryDy=0;" edge="1" parent="1" source="4" target="12">
                    <mxGeometry relative="1" as="geometry"/>
                </mxCell>
                <mxCell id="40" style="edgeStyle=none;html=1;entryX=0;entryY=1;entryDx=0;entryDy=0;" edge="1" parent="1" source="4" target="15">
                    <mxGeometry relative="1" as="geometry"/>
                </mxCell>
                <mxCell id="41" style="edgeStyle=none;html=1;entryX=0;entryY=1;entryDx=0;entryDy=0;" edge="1" parent="1" source="4" target="16">
                    <mxGeometry relative="1" as="geometry"/>
                </mxCell>
                <mxCell id="42" style="edgeStyle=none;html=1;entryX=0;entryY=0;entryDx=0;entryDy=0;" edge="1" parent="1" source="4" target="17">
                    <mxGeometry relative="1" as="geometry"/>
                </mxCell>
                <mxCell id="4" value="PowerUser" style="shape=umlActor;verticalLabelPosition=bottom;verticalAlign=top;html=1;outlineConnect=0;" vertex="1" parent="1">
                    <mxGeometry x="40" y="530" width="30" height="60" as="geometry"/>
                </mxCell>
                <mxCell id="8" value="Registration" style="ellipse;shape=doubleEllipse;whiteSpace=wrap;html=1;" vertex="1" parent="1">
                    <mxGeometry x="200" y="110" width="100" height="60" as="geometry"/>
                </mxCell>
                <mxCell id="9" value="Login" style="ellipse;shape=doubleEllipse;whiteSpace=wrap;html=1;" vertex="1" parent="1">
                    <mxGeometry x="199" y="174" width="100" height="60" as="geometry"/>
                </mxCell>
                <mxCell id="10" value="Create Data" style="ellipse;shape=doubleEllipse;whiteSpace=wrap;html=1;" vertex="1" parent="1">
                    <mxGeometry x="200" y="242" width="100" height="60" as="geometry"/>
                </mxCell>
                <mxCell id="11" value="Read Data" style="ellipse;shape=doubleEllipse;whiteSpace=wrap;html=1;" vertex="1" parent="1">
                    <mxGeometry x="202" y="308" width="100" height="60" as="geometry"/>
                </mxCell>
                <mxCell id="12" value="Update Data" style="ellipse;shape=doubleEllipse;whiteSpace=wrap;html=1;" vertex="1" parent="1">
                    <mxGeometry x="202" y="376" width="100" height="60" as="geometry"/>
                </mxCell>
                <mxCell id="14" value="Delete Data" style="ellipse;shape=doubleEllipse;whiteSpace=wrap;html=1;" vertex="1" parent="1">
                    <mxGeometry x="201" y="444" width="100" height="60" as="geometry"/>
                </mxCell>
                <mxCell id="15" value="Logout" style="ellipse;shape=doubleEllipse;whiteSpace=wrap;html=1;" vertex="1" parent="1">
                    <mxGeometry x="201" y="510" width="100" height="60" as="geometry"/>
                </mxCell>
                <mxCell id="16" value="Sort Data" style="ellipse;shape=doubleEllipse;whiteSpace=wrap;html=1;" vertex="1" parent="1">
                    <mxGeometry x="202" y="575" width="100" height="60" as="geometry"/>
                </mxCell>
                <mxCell id="17" value="Search Data" style="ellipse;shape=doubleEllipse;whiteSpace=wrap;html=1;" vertex="1" parent="1">
                    <mxGeometry x="202" y="640" width="100" height="60" as="geometry"/>
                </mxCell>
            </root>
        </mxGraphModel>
    </diagram>
    <diagram id="G2zhOVyj3yh4FY7xwYPG" name="Activity">
        <mxGraphModel dx="1953" dy="866" grid="1" gridSize="10" guides="1" tooltips="1" connect="1" arrows="1" fold="1" page="1" pageScale="1" pageWidth="850" pageHeight="1100" math="0" shadow="0">
            <root>
                <mxCell id="0"/>
                <mxCell id="1" parent="0"/>
                <mxCell id="bL8_LdS2PwatgNaxqqq4-4" value="" style="edgeStyle=none;html=1;" edge="1" parent="1" source="bL8_LdS2PwatgNaxqqq4-2" target="bL8_LdS2PwatgNaxqqq4-3">
                    <mxGeometry relative="1" as="geometry"/>
                </mxCell>
                <mxCell id="bL8_LdS2PwatgNaxqqq4-2" value="" style="ellipse;fillColor=strokeColor;" vertex="1" parent="1">
                    <mxGeometry x="425" y="50" width="30" height="30" as="geometry"/>
                </mxCell>
                <mxCell id="bL8_LdS2PwatgNaxqqq4-7" value="" style="edgeStyle=none;html=1;fontColor=#000000;" edge="1" parent="1" source="bL8_LdS2PwatgNaxqqq4-3" target="bL8_LdS2PwatgNaxqqq4-6">
                    <mxGeometry relative="1" as="geometry"/>
                </mxCell>
                <mxCell id="bL8_LdS2PwatgNaxqqq4-3" value="&lt;font color=&quot;#000000&quot;&gt;Registration&lt;/font&gt;" style="whiteSpace=wrap;html=1;fillColor=strokeColor;" vertex="1" parent="1">
                    <mxGeometry x="395" y="120" width="90" height="35" as="geometry"/>
                </mxCell>
                <mxCell id="bL8_LdS2PwatgNaxqqq4-8" value="No" style="edgeStyle=none;html=1;entryX=1;entryY=0.5;entryDx=0;entryDy=0;fontColor=#FFFFFF;" edge="1" parent="1" source="bL8_LdS2PwatgNaxqqq4-6" target="bL8_LdS2PwatgNaxqqq4-3">
                    <mxGeometry relative="1" as="geometry">
                        <Array as="points">
                            <mxPoint x="520" y="219"/>
                            <mxPoint x="520" y="138"/>
                        </Array>
                    </mxGeometry>
                </mxCell>
                <mxCell id="bL8_LdS2PwatgNaxqqq4-11" value="" style="edgeStyle=none;html=1;fontColor=#FFFFFF;" edge="1" parent="1" source="bL8_LdS2PwatgNaxqqq4-6" target="bL8_LdS2PwatgNaxqqq4-10">
                    <mxGeometry relative="1" as="geometry"/>
                </mxCell>
                <mxCell id="bL8_LdS2PwatgNaxqqq4-14" value="&lt;font color=&quot;#ffffff&quot;&gt;yes&lt;/font&gt;" style="edgeLabel;html=1;align=center;verticalAlign=middle;resizable=0;points=[];fontColor=#000000;" vertex="1" connectable="0" parent="bL8_LdS2PwatgNaxqqq4-11">
                    <mxGeometry x="-0.3126" relative="1" as="geometry">
                        <mxPoint as="offset"/>
                    </mxGeometry>
                </mxCell>
                <mxCell id="bL8_LdS2PwatgNaxqqq4-6" value="" style="rhombus;whiteSpace=wrap;html=1;fillColor=strokeColor;" vertex="1" parent="1">
                    <mxGeometry x="420" y="200" width="40" height="37.5" as="geometry"/>
                </mxCell>
                <mxCell id="bL8_LdS2PwatgNaxqqq4-13" value="" style="edgeStyle=none;html=1;fontColor=#000000;" edge="1" parent="1" source="bL8_LdS2PwatgNaxqqq4-10" target="bL8_LdS2PwatgNaxqqq4-12">
                    <mxGeometry relative="1" as="geometry"/>
                </mxCell>
                <mxCell id="bL8_LdS2PwatgNaxqqq4-10" value="&lt;font color=&quot;#000000&quot;&gt;Email Confirmation&lt;/font&gt;" style="whiteSpace=wrap;html=1;fillColor=strokeColor;" vertex="1" parent="1">
                    <mxGeometry x="400" y="306.25" width="80" height="33.75" as="geometry"/>
                </mxCell>
                <mxCell id="bL8_LdS2PwatgNaxqqq4-15" style="edgeStyle=none;html=1;entryX=1;entryY=0.5;entryDx=0;entryDy=0;fontColor=#FFFFFF;" edge="1" parent="1" source="bL8_LdS2PwatgNaxqqq4-12" target="bL8_LdS2PwatgNaxqqq4-3">
                    <mxGeometry relative="1" as="geometry">
                        <Array as="points">
                            <mxPoint x="600" y="407"/>
                            <mxPoint x="600" y="138"/>
                        </Array>
                    </mxGeometry>
                </mxCell>
                <mxCell id="bL8_LdS2PwatgNaxqqq4-16" value="No" style="edgeLabel;html=1;align=center;verticalAlign=middle;resizable=0;points=[];fontColor=#FFFFFF;" vertex="1" connectable="0" parent="bL8_LdS2PwatgNaxqqq4-15">
                    <mxGeometry x="0.0115" y="-3" relative="1" as="geometry">
                        <mxPoint as="offset"/>
                    </mxGeometry>
                </mxCell>
                <mxCell id="bL8_LdS2PwatgNaxqqq4-18" value="" style="edgeStyle=none;html=1;fontColor=#000099;" edge="1" parent="1" source="bL8_LdS2PwatgNaxqqq4-12" target="bL8_LdS2PwatgNaxqqq4-17">
                    <mxGeometry relative="1" as="geometry"/>
                </mxCell>
                <mxCell id="bL8_LdS2PwatgNaxqqq4-19" value="yes" style="edgeLabel;html=1;align=center;verticalAlign=middle;resizable=0;points=[];fontColor=#FFFFFF;" vertex="1" connectable="0" parent="bL8_LdS2PwatgNaxqqq4-18">
                    <mxGeometry x="-0.5492" y="-1" relative="1" as="geometry">
                        <mxPoint as="offset"/>
                    </mxGeometry>
                </mxCell>
                <mxCell id="bL8_LdS2PwatgNaxqqq4-12" value="" style="rhombus;whiteSpace=wrap;html=1;fillColor=strokeColor;" vertex="1" parent="1">
                    <mxGeometry x="420" y="390" width="40" height="33.75" as="geometry"/>
                </mxCell>
                <mxCell id="bL8_LdS2PwatgNaxqqq4-22" value="" style="edgeStyle=none;html=1;fontColor=#000099;" edge="1" parent="1" source="bL8_LdS2PwatgNaxqqq4-17" target="bL8_LdS2PwatgNaxqqq4-21">
                    <mxGeometry relative="1" as="geometry"/>
                </mxCell>
                <mxCell id="bL8_LdS2PwatgNaxqqq4-17" value="&lt;font color=&quot;#000000&quot;&gt;login&lt;/font&gt;" style="whiteSpace=wrap;html=1;fillColor=strokeColor;" vertex="1" parent="1">
                    <mxGeometry x="405" y="470" width="70" height="29.38" as="geometry"/>
                </mxCell>
                <mxCell id="bL8_LdS2PwatgNaxqqq4-23" style="edgeStyle=none;html=1;entryX=1;entryY=0.5;entryDx=0;entryDy=0;fontColor=#000000;" edge="1" parent="1" source="bL8_LdS2PwatgNaxqqq4-21" target="bL8_LdS2PwatgNaxqqq4-17">
                    <mxGeometry relative="1" as="geometry">
                        <Array as="points">
                            <mxPoint x="520" y="568"/>
                            <mxPoint x="520" y="520"/>
                            <mxPoint x="520" y="485"/>
                        </Array>
                    </mxGeometry>
                </mxCell>
                <mxCell id="bL8_LdS2PwatgNaxqqq4-24" value="&lt;font color=&quot;#ffffff&quot;&gt;no&lt;/font&gt;" style="edgeLabel;html=1;align=center;verticalAlign=middle;resizable=0;points=[];fontColor=#000000;" vertex="1" connectable="0" parent="bL8_LdS2PwatgNaxqqq4-23">
                    <mxGeometry x="0.1939" y="1" relative="1" as="geometry">
                        <mxPoint as="offset"/>
                    </mxGeometry>
                </mxCell>
                <mxCell id="bL8_LdS2PwatgNaxqqq4-21" value="" style="rhombus;whiteSpace=wrap;html=1;fillColor=strokeColor;" vertex="1" parent="1">
                    <mxGeometry x="422.5" y="550" width="35" height="35.93" as="geometry"/>
                </mxCell>
                <mxCell id="bL8_LdS2PwatgNaxqqq4-26" value="" style="edgeStyle=none;html=1;fontColor=#000099;" edge="1" parent="1" target="bL8_LdS2PwatgNaxqqq4-28">
                    <mxGeometry relative="1" as="geometry">
                        <mxPoint x="440" y="590.0000000000001" as="sourcePoint"/>
                    </mxGeometry>
                </mxCell>
                <mxCell id="bL8_LdS2PwatgNaxqqq4-27" value="yes" style="edgeLabel;html=1;align=center;verticalAlign=middle;resizable=0;points=[];fontColor=#FFFFFF;" vertex="1" connectable="0" parent="bL8_LdS2PwatgNaxqqq4-26">
                    <mxGeometry x="-0.5492" y="-1" relative="1" as="geometry">
                        <mxPoint as="offset"/>
                    </mxGeometry>
                </mxCell>
                <mxCell id="bL8_LdS2PwatgNaxqqq4-30" style="edgeStyle=none;html=1;entryX=0.261;entryY=0.481;entryDx=0;entryDy=0;entryPerimeter=0;fontColor=#FFFFFF;" edge="1" parent="1" source="bL8_LdS2PwatgNaxqqq4-28" target="bL8_LdS2PwatgNaxqqq4-29">
                    <mxGeometry relative="1" as="geometry"/>
                </mxCell>
                <mxCell id="bL8_LdS2PwatgNaxqqq4-28" value="&lt;font color=&quot;#000000&quot;&gt;View Menu&lt;/font&gt;" style="whiteSpace=wrap;html=1;fillColor=strokeColor;" vertex="1" parent="1">
                    <mxGeometry x="405" y="636.25" width="70" height="29.38" as="geometry"/>
                </mxCell>
                <mxCell id="bL8_LdS2PwatgNaxqqq4-33" value="" style="edgeStyle=none;html=1;fontColor=#FFFFFF;" edge="1" parent="1" source="bL8_LdS2PwatgNaxqqq4-29" target="bL8_LdS2PwatgNaxqqq4-32">
                    <mxGeometry relative="1" as="geometry"/>
                </mxCell>
                <mxCell id="bL8_LdS2PwatgNaxqqq4-52" style="edgeStyle=none;html=1;entryX=0.5;entryY=0;entryDx=0;entryDy=0;fontColor=#000000;" edge="1" parent="1" source="bL8_LdS2PwatgNaxqqq4-29" target="bL8_LdS2PwatgNaxqqq4-34">
                    <mxGeometry relative="1" as="geometry"/>
                </mxCell>
                <mxCell id="bL8_LdS2PwatgNaxqqq4-69" style="edgeStyle=none;html=1;entryX=0;entryY=0.5;entryDx=0;entryDy=0;fontColor=#FFFFFF;" edge="1" parent="1" source="bL8_LdS2PwatgNaxqqq4-29" target="bL8_LdS2PwatgNaxqqq4-68">
                    <mxGeometry relative="1" as="geometry"/>
                </mxCell>
                <mxCell id="bL8_LdS2PwatgNaxqqq4-77" style="edgeStyle=none;html=1;entryX=1;entryY=0.5;entryDx=0;entryDy=0;fontColor=#33FF33;" edge="1" parent="1" source="bL8_LdS2PwatgNaxqqq4-29" target="bL8_LdS2PwatgNaxqqq4-76">
                    <mxGeometry relative="1" as="geometry"/>
                </mxCell>
                <mxCell id="bL8_LdS2PwatgNaxqqq4-29" value="" style="html=1;points=[];perimeter=orthogonalPerimeter;fillColor=strokeColor;fontColor=#FFFFFF;direction=south;" vertex="1" parent="1">
                    <mxGeometry x="400" y="720" width="80" height="5" as="geometry"/>
                </mxCell>
                <mxCell id="bL8_LdS2PwatgNaxqqq4-47" style="edgeStyle=none;html=1;entryX=0.5;entryY=0;entryDx=0;entryDy=0;fontColor=#000000;" edge="1" parent="1" source="bL8_LdS2PwatgNaxqqq4-32" target="bL8_LdS2PwatgNaxqqq4-46">
                    <mxGeometry relative="1" as="geometry"/>
                </mxCell>
                <mxCell id="bL8_LdS2PwatgNaxqqq4-32" value="&lt;font color=&quot;#000000&quot;&gt;Daten angucken&lt;/font&gt;" style="whiteSpace=wrap;html=1;fillColor=strokeColor;fontColor=#FFFFFF;" vertex="1" parent="1">
                    <mxGeometry x="295" y="770" width="60" height="30" as="geometry"/>
                </mxCell>
                <mxCell id="bL8_LdS2PwatgNaxqqq4-55" style="edgeStyle=none;html=1;entryX=0.5;entryY=0;entryDx=0;entryDy=0;fontColor=#000000;" edge="1" parent="1" source="bL8_LdS2PwatgNaxqqq4-34" target="bL8_LdS2PwatgNaxqqq4-54">
                    <mxGeometry relative="1" as="geometry"/>
                </mxCell>
                <mxCell id="bL8_LdS2PwatgNaxqqq4-34" value="&lt;font color=&quot;#000000&quot;&gt;Daten suchen&lt;/font&gt;" style="whiteSpace=wrap;html=1;fillColor=strokeColor;fontColor=#FFFFFF;" vertex="1" parent="1">
                    <mxGeometry x="535" y="770" width="60" height="30" as="geometry"/>
                </mxCell>
                <mxCell id="bL8_LdS2PwatgNaxqqq4-65" style="edgeStyle=none;html=1;entryX=0.887;entryY=0.464;entryDx=0;entryDy=0;entryPerimeter=0;fontColor=#FFFFFF;" edge="1" parent="1" source="bL8_LdS2PwatgNaxqqq4-35" target="bL8_LdS2PwatgNaxqqq4-29">
                    <mxGeometry relative="1" as="geometry"/>
                </mxCell>
                <mxCell id="bL8_LdS2PwatgNaxqqq4-35" value="&lt;font color=&quot;#000000&quot;&gt;Fremde Daten angucken&lt;/font&gt;" style="whiteSpace=wrap;html=1;fillColor=strokeColor;fontColor=#FFFFFF;" vertex="1" parent="1">
                    <mxGeometry x="530" y="960" width="70" height="40" as="geometry"/>
                </mxCell>
                <mxCell id="bL8_LdS2PwatgNaxqqq4-64" style="edgeStyle=none;html=1;entryX=0.887;entryY=0.472;entryDx=0;entryDy=0;entryPerimeter=0;fontColor=#FFFFFF;" edge="1" parent="1" source="bL8_LdS2PwatgNaxqqq4-46" target="bL8_LdS2PwatgNaxqqq4-29">
                    <mxGeometry relative="1" as="geometry"/>
                </mxCell>
                <mxCell id="bL8_LdS2PwatgNaxqqq4-46" value="Daten updaten" style="whiteSpace=wrap;html=1;fillColor=#d80073;fontColor=#ffffff;strokeColor=#A50040;" vertex="1" parent="1">
                    <mxGeometry x="290" y="860" width="70" height="40" as="geometry"/>
                </mxCell>
                <mxCell id="bL8_LdS2PwatgNaxqqq4-56" style="edgeStyle=none;html=1;entryX=0.5;entryY=0;entryDx=0;entryDy=0;fontColor=#000000;" edge="1" parent="1" source="bL8_LdS2PwatgNaxqqq4-54" target="bL8_LdS2PwatgNaxqqq4-35">
                    <mxGeometry relative="1" as="geometry"/>
                </mxCell>
                <mxCell id="bL8_LdS2PwatgNaxqqq4-59" value="ja" style="edgeLabel;html=1;align=center;verticalAlign=middle;resizable=0;points=[];fontColor=#FFFFFF;" vertex="1" connectable="0" parent="bL8_LdS2PwatgNaxqqq4-56">
                    <mxGeometry x="-0.4116" y="2" relative="1" as="geometry">
                        <mxPoint as="offset"/>
                    </mxGeometry>
                </mxCell>
                <mxCell id="bL8_LdS2PwatgNaxqqq4-57" style="edgeStyle=none;html=1;entryX=1;entryY=0.5;entryDx=0;entryDy=0;fontColor=#000000;" edge="1" parent="1" source="bL8_LdS2PwatgNaxqqq4-54" target="bL8_LdS2PwatgNaxqqq4-34">
                    <mxGeometry relative="1" as="geometry">
                        <Array as="points">
                            <mxPoint x="640" y="880"/>
                            <mxPoint x="640" y="785"/>
                        </Array>
                    </mxGeometry>
                </mxCell>
                <mxCell id="bL8_LdS2PwatgNaxqqq4-58" value="&lt;font color=&quot;#ffffff&quot;&gt;nein&lt;/font&gt;" style="edgeLabel;html=1;align=center;verticalAlign=middle;resizable=0;points=[];fontColor=#000000;" vertex="1" connectable="0" parent="bL8_LdS2PwatgNaxqqq4-57">
                    <mxGeometry x="0.1481" y="-2" relative="1" as="geometry">
                        <mxPoint as="offset"/>
                    </mxGeometry>
                </mxCell>
                <mxCell id="bL8_LdS2PwatgNaxqqq4-54" value="" style="rhombus;whiteSpace=wrap;html=1;fillColor=strokeColor;fontColor=#FFFFFF;" vertex="1" parent="1">
                    <mxGeometry x="542.5" y="860" width="45" height="40" as="geometry"/>
                </mxCell>
                <mxCell id="bL8_LdS2PwatgNaxqqq4-72" style="edgeStyle=none;html=1;entryX=0.5;entryY=0;entryDx=0;entryDy=0;fontColor=#FFFFFF;" edge="1" parent="1" source="bL8_LdS2PwatgNaxqqq4-68" target="bL8_LdS2PwatgNaxqqq4-71">
                    <mxGeometry relative="1" as="geometry">
                        <Array as="points">
                            <mxPoint x="680" y="1040"/>
                            <mxPoint x="405" y="1040"/>
                        </Array>
                    </mxGeometry>
                </mxCell>
                <mxCell id="bL8_LdS2PwatgNaxqqq4-68" value="&lt;font color=&quot;#000000&quot;&gt;Ausloggen&lt;/font&gt;" style="whiteSpace=wrap;html=1;fillColor=strokeColor;fontColor=#FFFFFF;" vertex="1" parent="1">
                    <mxGeometry x="640" y="702.5" width="70" height="40" as="geometry"/>
                </mxCell>
                <mxCell id="bL8_LdS2PwatgNaxqqq4-71" value="" style="shape=sumEllipse;perimeter=ellipsePerimeter;whiteSpace=wrap;html=1;backgroundOutline=1;fontColor=#FFFFFF;" vertex="1" parent="1">
                    <mxGeometry x="390" y="1090" width="30" height="30" as="geometry"/>
                </mxCell>
                <mxCell id="bL8_LdS2PwatgNaxqqq4-81" value="" style="edgeStyle=none;html=1;fontColor=#FFFFFF;" edge="1" parent="1" source="bL8_LdS2PwatgNaxqqq4-76" target="bL8_LdS2PwatgNaxqqq4-80">
                    <mxGeometry relative="1" as="geometry"/>
                </mxCell>
                <mxCell id="bL8_LdS2PwatgNaxqqq4-83" style="edgeStyle=none;html=1;entryX=0;entryY=0.5;entryDx=0;entryDy=0;fontColor=#FFFFFF;" edge="1" parent="1" source="bL8_LdS2PwatgNaxqqq4-76" target="bL8_LdS2PwatgNaxqqq4-32">
                    <mxGeometry relative="1" as="geometry">
                        <Array as="points">
                            <mxPoint x="150" y="785"/>
                        </Array>
                    </mxGeometry>
                </mxCell>
                <mxCell id="bL8_LdS2PwatgNaxqqq4-76" value="Delete Data" style="whiteSpace=wrap;html=1;fillColor=#1ba1e2;fontColor=#ffffff;strokeColor=#006EAF;" vertex="1" parent="1">
                    <mxGeometry x="110" y="702.5" width="80" height="40" as="geometry"/>
                </mxCell>
                <mxCell id="bL8_LdS2PwatgNaxqqq4-78" value="Blau = Admin" style="text;html=1;align=center;verticalAlign=middle;resizable=0;points=[];autosize=1;strokeColor=none;fillColor=none;fontColor=#FFFFFF;" vertex="1" parent="1">
                    <mxGeometry x="45" y="95" width="90" height="30" as="geometry"/>
                </mxCell>
                <mxCell id="bL8_LdS2PwatgNaxqqq4-79" value="Rot&amp;nbsp; = Power User" style="text;html=1;align=center;verticalAlign=middle;resizable=0;points=[];autosize=1;strokeColor=none;fillColor=none;fontColor=#FFFFFF;" vertex="1" parent="1">
                    <mxGeometry x="45" y="120" width="120" height="30" as="geometry"/>
                </mxCell>
                <mxCell id="bL8_LdS2PwatgNaxqqq4-82" style="edgeStyle=none;html=1;entryX=0.154;entryY=1.062;entryDx=0;entryDy=0;entryPerimeter=0;fontColor=#FFFFFF;" edge="1" parent="1" source="bL8_LdS2PwatgNaxqqq4-80" target="bL8_LdS2PwatgNaxqqq4-29">
                    <mxGeometry relative="1" as="geometry">
                        <Array as="points">
                            <mxPoint y="670"/>
                            <mxPoint x="395" y="670"/>
                        </Array>
                    </mxGeometry>
                </mxCell>
                <mxCell id="bL8_LdS2PwatgNaxqqq4-80" value="" style="rhombus;whiteSpace=wrap;html=1;fillColor=#1ba1e2;strokeColor=#006EAF;fontColor=#ffffff;" vertex="1" parent="1">
                    <mxGeometry x="-30" y="693.75" width="60" height="57.5" as="geometry"/>
                </mxCell>
            </root>
        </mxGraphModel>
    </diagram>
    <diagram id="mSikhVnsFdiqEHZcdI_I" name="Sequenz">
        <mxGraphModel dx="717" dy="563" grid="1" gridSize="10" guides="1" tooltips="1" connect="1" arrows="1" fold="1" page="1" pageScale="1" pageWidth="850" pageHeight="1100" math="0" shadow="0">
            <root>
                <mxCell id="0"/>
                <mxCell id="1" parent="0"/>
                <mxCell id="fa0IQ3t8gLVoHZFkBQbd-5" value="&lt;span style=&quot;&quot;&gt;Server&lt;/span&gt;" style="shape=umlLifeline;perimeter=lifelinePerimeter;whiteSpace=wrap;html=1;container=1;collapsible=0;recursiveResize=0;outlineConnect=0;labelBackgroundColor=#000000;strokeColor=#006EAF;fontColor=#FFFFFF;" vertex="1" parent="1">
                    <mxGeometry x="370" y="140" width="100" height="940" as="geometry"/>
                </mxCell>
                <mxCell id="fa0IQ3t8gLVoHZFkBQbd-6" value="" style="html=1;points=[];perimeter=orthogonalPerimeter;fillColor=#808080;labelBackgroundColor=#33FF99;strokeColor=#006EAF;fontColor=#FFFFFF;" vertex="1" parent="fa0IQ3t8gLVoHZFkBQbd-5">
                    <mxGeometry x="45" y="90" width="10" height="50" as="geometry"/>
                </mxCell>
                <mxCell id="fa0IQ3t8gLVoHZFkBQbd-22" value="" style="html=1;points=[];perimeter=orthogonalPerimeter;fillColor=#808080;labelBackgroundColor=#33FF99;strokeColor=#006EAF;fontColor=#FFFFFF;" vertex="1" parent="fa0IQ3t8gLVoHZFkBQbd-5">
                    <mxGeometry x="46" y="230" width="10" height="50" as="geometry"/>
                </mxCell>
                <mxCell id="fa0IQ3t8gLVoHZFkBQbd-7" value="&lt;span style=&quot;&quot;&gt;User&lt;/span&gt;" style="shape=umlLifeline;perimeter=lifelinePerimeter;whiteSpace=wrap;html=1;container=1;collapsible=0;recursiveResize=0;outlineConnect=0;labelBackgroundColor=#1A1A1A;strokeColor=#006EAF;fontColor=#FFFFFF;" vertex="1" parent="1">
                    <mxGeometry x="108" y="140" width="100" height="940" as="geometry"/>
                </mxCell>
                <mxCell id="fa0IQ3t8gLVoHZFkBQbd-8" value="" style="html=1;points=[];perimeter=orthogonalPerimeter;labelBackgroundColor=#33FF99;strokeColor=#006EAF;fontColor=#FFFFFF;" vertex="1" parent="fa0IQ3t8gLVoHZFkBQbd-7">
                    <mxGeometry x="45" y="90" width="10" height="50" as="geometry"/>
                </mxCell>
                <mxCell id="fa0IQ3t8gLVoHZFkBQbd-9" style="edgeStyle=none;html=1;fontColor=#FFFFFF;" edge="1" parent="1">
                    <mxGeometry relative="1" as="geometry">
                        <mxPoint x="163" y="240" as="sourcePoint"/>
                        <mxPoint x="419.5" y="240" as="targetPoint"/>
                    </mxGeometry>
                </mxCell>
                <mxCell id="fa0IQ3t8gLVoHZFkBQbd-10" value="Registration" style="edgeLabel;html=1;align=center;verticalAlign=middle;resizable=0;points=[];fontColor=#FFFFFF;" vertex="1" connectable="0" parent="fa0IQ3t8gLVoHZFkBQbd-9">
                    <mxGeometry x="-0.306" y="-2" relative="1" as="geometry">
                        <mxPoint as="offset"/>
                    </mxGeometry>
                </mxCell>
                <mxCell id="fa0IQ3t8gLVoHZFkBQbd-11" style="edgeStyle=none;html=1;entryX=1.3;entryY=0.693;entryDx=0;entryDy=0;entryPerimeter=0;fontColor=#FFFFFF;" edge="1" parent="1" source="fa0IQ3t8gLVoHZFkBQbd-6" target="fa0IQ3t8gLVoHZFkBQbd-8">
                    <mxGeometry relative="1" as="geometry"/>
                </mxCell>
                <mxCell id="fa0IQ3t8gLVoHZFkBQbd-12" value="Confirmation" style="edgeLabel;html=1;align=center;verticalAlign=middle;resizable=0;points=[];fontColor=#FFFFFF;" vertex="1" connectable="0" parent="fa0IQ3t8gLVoHZFkBQbd-11">
                    <mxGeometry x="0.3092" y="-3" relative="1" as="geometry">
                        <mxPoint as="offset"/>
                    </mxGeometry>
                </mxCell>
                <mxCell id="fa0IQ3t8gLVoHZFkBQbd-15" value="" style="html=1;points=[];perimeter=orthogonalPerimeter;fillColor=#808080;labelBackgroundColor=#33FF99;strokeColor=#006EAF;fontColor=#FFFFFF;" vertex="1" parent="1">
                    <mxGeometry x="416" y="300" width="10" height="50" as="geometry"/>
                </mxCell>
                <mxCell id="fa0IQ3t8gLVoHZFkBQbd-21" style="edgeStyle=none;html=1;fontColor=#FFFFFF;" edge="1" parent="1" source="fa0IQ3t8gLVoHZFkBQbd-16" target="fa0IQ3t8gLVoHZFkBQbd-7">
                    <mxGeometry relative="1" as="geometry"/>
                </mxCell>
                <mxCell id="fa0IQ3t8gLVoHZFkBQbd-23" style="edgeStyle=none;html=1;fontColor=#FFFFFF;" edge="1" parent="1" source="fa0IQ3t8gLVoHZFkBQbd-16" target="fa0IQ3t8gLVoHZFkBQbd-5">
                    <mxGeometry relative="1" as="geometry"/>
                </mxCell>
                <mxCell id="fa0IQ3t8gLVoHZFkBQbd-24" value="Search Data" style="edgeLabel;html=1;align=center;verticalAlign=middle;resizable=0;points=[];fontColor=#FFFFFF;" vertex="1" connectable="0" parent="fa0IQ3t8gLVoHZFkBQbd-23">
                    <mxGeometry x="-0.2407" y="1" relative="1" as="geometry">
                        <mxPoint as="offset"/>
                    </mxGeometry>
                </mxCell>
                <mxCell id="fa0IQ3t8gLVoHZFkBQbd-27" style="edgeStyle=none;html=1;fontColor=#FFFFFF;" edge="1" parent="1" source="fa0IQ3t8gLVoHZFkBQbd-16" target="fa0IQ3t8gLVoHZFkBQbd-7">
                    <mxGeometry relative="1" as="geometry"/>
                </mxCell>
                <mxCell id="fa0IQ3t8gLVoHZFkBQbd-16" value="" style="html=1;points=[];perimeter=orthogonalPerimeter;labelBackgroundColor=#33FF99;strokeColor=#006EAF;fontColor=#FFFFFF;" vertex="1" parent="1">
                    <mxGeometry x="154" y="300" width="10" height="150" as="geometry"/>
                </mxCell>
                <mxCell id="fa0IQ3t8gLVoHZFkBQbd-17" style="edgeStyle=none;html=1;fontColor=#FFFFFF;" edge="1" parent="1">
                    <mxGeometry relative="1" as="geometry">
                        <mxPoint x="164" y="310" as="sourcePoint"/>
                        <mxPoint x="420.5" y="310" as="targetPoint"/>
                    </mxGeometry>
                </mxCell>
                <mxCell id="fa0IQ3t8gLVoHZFkBQbd-18" value="Login" style="edgeLabel;html=1;align=center;verticalAlign=middle;resizable=0;points=[];fontColor=#FFFFFF;" vertex="1" connectable="0" parent="fa0IQ3t8gLVoHZFkBQbd-17">
                    <mxGeometry x="-0.306" y="-2" relative="1" as="geometry">
                        <mxPoint as="offset"/>
                    </mxGeometry>
                </mxCell>
                <mxCell id="fa0IQ3t8gLVoHZFkBQbd-19" style="edgeStyle=none;html=1;fontColor=#FFFFFF;" edge="1" parent="1" source="fa0IQ3t8gLVoHZFkBQbd-15" target="fa0IQ3t8gLVoHZFkBQbd-7">
                    <mxGeometry relative="1" as="geometry"/>
                </mxCell>
                <mxCell id="fa0IQ3t8gLVoHZFkBQbd-20" value="Confirmation" style="edgeLabel;html=1;align=center;verticalAlign=middle;resizable=0;points=[];fontColor=#FFFFFF;" vertex="1" connectable="0" parent="fa0IQ3t8gLVoHZFkBQbd-19">
                    <mxGeometry x="0.3092" y="-3" relative="1" as="geometry">
                        <mxPoint as="offset"/>
                    </mxGeometry>
                </mxCell>
                <mxCell id="fa0IQ3t8gLVoHZFkBQbd-25" style="edgeStyle=none;html=1;fontColor=#FFFFFF;entryX=1;entryY=0.6;entryDx=0;entryDy=0;entryPerimeter=0;" edge="1" parent="1" source="fa0IQ3t8gLVoHZFkBQbd-22" target="fa0IQ3t8gLVoHZFkBQbd-16">
                    <mxGeometry relative="1" as="geometry">
                        <mxPoint x="170" y="395" as="targetPoint"/>
                    </mxGeometry>
                </mxCell>
                <mxCell id="fa0IQ3t8gLVoHZFkBQbd-26" value="Return found Data" style="edgeLabel;html=1;align=center;verticalAlign=middle;resizable=0;points=[];fontColor=#FFFFFF;" vertex="1" connectable="0" parent="fa0IQ3t8gLVoHZFkBQbd-25">
                    <mxGeometry x="0.3694" y="-2" relative="1" as="geometry">
                        <mxPoint as="offset"/>
                    </mxGeometry>
                </mxCell>
            </root>
        </mxGraphModel>
    </diagram>
</mxfile>